# xmcd CD database file
#
# Track frame offsets:
#	150
#	22670
#	38407
#
# Disc length: 738 seconds
#
# Revision: 5
# Processed by: cddbd v1.5.1PL0 Copyright (c) Steve Scherf et al.
# Submitted via: CDex 1.50
#
DISCID=0f02e003
DTITLE=REM - Everybody Hurts (Collector's Edition CD1/2)
DYEAR=1900
DGENRE=Alternative
TTITLE0=Everybody Hurts (Edit)
TTITLE1=New Orleans Instrumental No. 1 (Long Version)
TTITLE2=Mandolin Strum (Previously Unreleased)
EXTD=
EXTT0=
EXTT1=
EXTT2=
PLAYORDER=
